# xmcd
#
# Track frame offsets:
#	150
#	14479
#	31505
#	38947
#	48138
#	61906
#	74717
#	84825
#	99621
#	115957
#	128118
#	142724
#	158250
#	172567
#
# Disc length: 2520 seconds
#
# Revision: 1
# Processed by: cddbd v1.5.1PL0 Copyright (c) Steve Scherf et al.
# Submitted via: audiograbber 1.83.01
#
DISCID=9f09d60e
DTITLE=Holy Voices  - Golden Hits 1
DYEAR=1900
DGENRE=Gospel
TTITLE0=Kumbaya
TTITLE1=Wade in the water
TTITLE2=He's got the whole world
TTITLE3=Roll Jordan Roll
TTITLE4=Down by the riverside
TTITLE5=Rusty old halo
TTITLE6=Motherless Children
TTITLE7=Old ship of Zion
TTITLE8=Deep river
TTITLE9=Wake up what's happening
TTITLE10=When the Saints go marching in
TTITLE11=Swing Low Sweet Chariot
TTITLE12=Humble me Lord
TTITLE13=Closer to the light
EXTD=
EXTT0=
EXTT1=
EXTT2=
EXTT3=
EXTT4=
EXTT5=
EXTT6=
EXTT7=
EXTT8=
EXTT9=
EXTT10=
EXTT11=
EXTT12=
EXTT13=
PLAYORDER=
